<?xml version="1.0" encoding="utf-8"?>
<!-- Generator: Adobe Illustrator 25.1.0, SVG Export Plug-In . SVG Version: 6.00 Build 0)  -->
<svg version="1.1" id="Layer_1" xmlns="http://www.w3.org/2000/svg" xmlns:xlink="http://www.w3.org/1999/xlink" x="0px" y="0px"
	 viewBox="0 0 32 32" style="enable-background:new 0 0 32 32;" xml:space="preserve">
<style type="text/css">
	.st0{fill:#667580;}
</style>
<g id="Page-1">
	<g id="comment">
		<path id="comment-1" class="st0" d="M16,26c1.2,0,2.3-0.1,3.4-0.4l4.7,2.8L24,23.8c3.6-2.2,6-5.8,6-9.8c0-6.6-6.3-12-14-12
			S2,7.4,2,14C2,20.6,8.3,26,16,26L16,26z M16,0c8.8,0,16,6.3,16,14c0,4.4-2.3,8.4-6,10.9V32l-7-4.3c-1,0.2-2,0.3-3,0.3
			C7.2,28,0,21.7,0,14C0,6.3,7.2,0,16,0L16,0z"/>
	</g>
</g>
</svg>
