<?xml version="1.0" encoding="utf-8"?>
<!-- Generator: Adobe Illustrator 25.1.0, SVG Export Plug-In . SVG Version: 6.00 Build 0)  -->
<svg version="1.1" id="Layer_1" xmlns="http://www.w3.org/2000/svg" xmlns:xlink="http://www.w3.org/1999/xlink" x="0px" y="0px"
	 viewBox="0 0 38 44" style="enable-background:new 0 0 38 44;" xml:space="preserve">
<style type="text/css">
	.st0{fill-rule:evenodd;clip-rule:evenodd;fill:#667580;}
</style>
<path id="Image" class="st0" d="M37.1,9.9l-8.5-8.5C28,0.5,27,0,26,0H3C1.3,0,0,1.3,0,3v38c0,1.7,1.3,3,3,3h32
	c1.4,0.2,2.8-0.8,3-2.3c0-0.2,0-0.5,0-0.7V13C38.1,11.9,37.7,10.8,37.1,9.9z M29,6.1l3.9,3.9H29V6.1z M25.9,3C25.9,3,25.9,3,25.9,3
	L26,3.1V13h9v10.7l-5.3-3c-0.6-0.4-1.4-0.2-1.9,0.3l-8.3,9.2l-7-2.6c-0.5-0.2-1.2-0.1-1.6,0.3L3,35.9V3H25.9L25.9,3z M3,41v-0.9
	c0,0,0,0,0.1,0l9.3-9.3l7.1,2.6c0.6,0.2,1.2,0.1,1.6-0.4l8.2-9.1l5.7,3.3V41H3z M12,21c2.8,0,5-2.2,5-5s-2.2-5-5-5s-5,2.2-5,5
	S9.2,21,12,21z M12,14c1.1,0,2,0.9,2,2s-0.9,2-2,2s-2-0.9-2-2S10.9,14,12,14z"/>
</svg>
