<?xml version="1.0" encoding="utf-8"?>
<!-- Generator: Adobe Illustrator 25.1.0, SVG Export Plug-In . SVG Version: 6.00 Build 0)  -->
<svg version="1.1" id="Layer_1" xmlns="http://www.w3.org/2000/svg" xmlns:xlink="http://www.w3.org/1999/xlink" x="0px" y="0px"
	 viewBox="0 0 34 39" style="enable-background:new 0 0 34 39;" xml:space="preserve">
<style type="text/css">
	.st0{fill-rule:evenodd;clip-rule:evenodd;fill:#667580;}
</style>
<path id="Link" class="st0" d="M2.3,25.1c-3.2,3.2-3.1,8.4,0.1,11.5c3.3,3.2,8.5,3.2,11.7,0l8-7.9c0,0,0,0,0.1-0.1
	c3.2-3.2,3.1-8.4-0.1-11.6c-1.2-1.2-2.9-2-4.6-2.3c-0.8-0.1-1.6,0.4-1.7,1.3c0,0,0,0,0,0c-0.1,0.8,0.4,1.6,1.3,1.7
	c1.1,0.2,2.1,0.7,2.9,1.5c0,0,0,0,0,0c2,2,2,5.3,0,7.3l-8,7.9c-2.1,2-5.4,2-7.5,0c0,0,0,0-0.1-0.1c-2-2-2-5.3,0.1-7.3l4.2-4.2
	c0,0,0,0,0,0c0.6-0.6,0.6-1.5,0-2.1c0,0,0,0,0,0c-0.6-0.6-1.5-0.6-2.1,0L2.3,25.1C2.4,25,2.4,25,2.3,25.1z M25.2,16.1
	C25.2,16.1,25.2,16.1,25.2,16.1c-0.6,0.6-0.6,1.5,0,2.1c0.6,0.6,1.5,0.6,2.1,0l4.2-4.2c0,0,0.1-0.1,0.1-0.1
	c3.2-3.2,3.1-8.4-0.1-11.5c-3.3-3.2-8.5-3.2-11.7,0l-8,7.9c0,0,0,0-0.1,0.1c-3.2,3.2-3.1,8.4,0.1,11.5c1.2,1.2,2.9,2,4.6,2.3
	c0.1,0,0.2,0,0.2,0c0.7,0,1.3-0.5,1.5-1.3c0.1-0.8-0.4-1.6-1.2-1.7c-1.1-0.2-2.1-0.7-2.9-1.5c-2-2-2-5.3,0-7.4l8-7.9
	c2.1-2,5.4-2,7.5,0c0,0,0,0,0.1,0.1c2,2,2,5.3-0.1,7.3L25.2,16.1z"/>
</svg>
