<?xml version="1.0" encoding="utf-8"?>
<!-- Generator: Adobe Illustrator 25.1.0, SVG Export Plug-In . SVG Version: 6.00 Build 0)  -->
<svg version="1.1" id="Layer_1" xmlns="http://www.w3.org/2000/svg" xmlns:xlink="http://www.w3.org/1999/xlink" x="0px" y="0px"
	 viewBox="0 0 39 44" style="enable-background:new 0 0 39 44;" xml:space="preserve">
<style type="text/css">
	.st0{fill-rule:evenodd;clip-rule:evenodd;fill:#667580;}
</style>
<path id="Notification" class="st0" d="M37.3,33.8c-0.4-0.4-3.8-3.6-3.8-14.3c0-3.5-2.1-7.6-4.6-10.4c-1.2-1.4-2.8-2.6-4.5-3.4
	c0-0.1,0-0.2,0-0.3c-0.1-3-2.7-5.4-5.7-5.3c-2.9,0.1-5.2,2.4-5.3,5.3c0,0.1,0,0.2,0,0.3C11.8,6.4,10.2,7.6,9,9
	c-2.4,3-3.7,6.6-3.6,10.4c0,10.7-3.3,13.9-3.8,14.3c-1.2,0.5-1.8,1.8-1.5,3.1S1.6,39.1,3,39h9c0.1,0.9,0.5,1.7,1.2,2.3
	c3.2,3.5,8.7,3.6,12.1,0.4c0.1-0.1,0.3-0.3,0.4-0.4c0.6-0.7,1-1.4,1.3-2.3h9c1.4,0.1,2.6-0.8,2.9-2.2C39.2,35.6,38.5,34.3,37.3,33.8
	z M19,2.9c1,0.1,1.9,0.7,2.3,1.7C20.6,4.5,19.8,5,19,5s-1.6-0.5-2.3-0.4C17.1,3.7,18,3,19,2.9z M19,7c6.3,0,11.6,6.9,11.6,12.4
	c0,3.2,0.5,6.5,1.4,9.6H7c0.9-3.1,1.4-6.3,1.4-9.6C8.4,13.9,12.7,7,19,7z M19.4,40.8c-1.5,0-2.4-0.7-3.4-1.8h7
	C22.1,40.1,20.8,40.8,19.4,40.8z M3.2,36c0,0,1.5-0.9,2.8-4h27c1.3,3.1,2.8,4,2.8,4H3.2z"/>
</svg>
