<?xml version="1.0" encoding="utf-8"?>
<!-- Generator: Adobe Illustrator 25.1.0, SVG Export Plug-In . SVG Version: 6.00 Build 0)  -->
<svg version="1.1" id="Layer_1" xmlns="http://www.w3.org/2000/svg" xmlns:xlink="http://www.w3.org/1999/xlink" x="0px" y="0px"
	 viewBox="0 0 38.9 41" style="enable-background:new 0 0 38.9 41;" xml:space="preserve">
<style type="text/css">
	.st0{fill-rule:evenodd;clip-rule:evenodd;fill:#667580;}
</style>
<path id="Search" class="st0" d="M38.4,38.4l-9.3-9.3c6.7-6.7,6.6-17.6-0.1-24.3S11.4-1.8,4.7,4.9s-6.6,17.6,0.1,24.3
	c5.9,5.9,15.2,6.7,22,1.9l9.4,9.5c0.6,0.6,1.5,0.6,2.1,0C39,40,39,39,38.4,38.4z M3,17.1c0-7.8,6.3-14,14.1-14s14,6.3,14,14.1
	c0,7.7-6.3,14-14,14C9.3,31.2,3,24.9,3,17.1L3,17.1z"/>
</svg>
