<?xml version="1.0" encoding="utf-8"?>
<!-- Generator: Adobe Illustrator 25.1.0, SVG Export Plug-In . SVG Version: 6.00 Build 0)  -->
<svg version="1.1" id="Layer_1" xmlns="http://www.w3.org/2000/svg" xmlns:xlink="http://www.w3.org/1999/xlink" x="0px" y="0px"
	 viewBox="0 0 36 44" style="enable-background:new 0 0 36 44;" xml:space="preserve">
<style type="text/css">
	.st0{fill-rule:evenodd;clip-rule:evenodd;fill:#667580;}
</style>
<path id="Location" class="st0" d="M18,0C8.2,0.2,0.2,8.2,0,18c0.2,2.9,1,5.7,2.4,8.3c0,0.1,0.1,0.2,0.1,0.2C13.4,44,16.6,44,18,44
	c2.2,0,4.5-1.5,10-9.3c2.9-4,5.4-8,5.5-8.2c0.1-0.1,0.1-0.2,0.1-0.2c1.4-2.6,2.2-5.4,2.4-8.3C35.8,8.2,27.8,0.2,18,0z M31,25
	c0,0-10,16-13,16C15,41,5,25,5,25c-1.2-2.2-1.9-4.5-2-7C3,9.7,9.7,3,18,3s15,6.7,15,15C32.8,20.4,32.1,22.8,31,25z M18,9
	c-4.4,0-8,3.6-8,8s3.6,8,8,8s8-3.6,8-8C26,12.6,22.4,9,18,9z M18,22c-2.8,0-5-2.2-5-5s2.2-5,5-5s5,2.2,5,5S20.8,22,18,22z"/>
</svg>
