<?xml version="1.0" encoding="utf-8"?>
<!-- Generator: Adobe Illustrator 25.1.0, SVG Export Plug-In . SVG Version: 6.00 Build 0)  -->
<svg version="1.1" id="Layer_1" xmlns="http://www.w3.org/2000/svg" xmlns:xlink="http://www.w3.org/1999/xlink" x="0px" y="0px"
	 viewBox="0 0 44 34" style="enable-background:new 0 0 44 34;" xml:space="preserve">
<style type="text/css">
	.st0{fill-rule:evenodd;clip-rule:evenodd;fill:#667580;}
</style>
<path id="Mail" class="st0" d="M41,0H3C1.3,0,0,1.3,0,3v28c0,1.7,1.3,3,3,3h38c1.7,0,3-1.3,3-3V3C44,1.3,42.7,0,41,0z M41,28.9
	L33.1,21c-0.6-0.6-1.6-0.5-2.1,0.1s-0.5,1.5,0,2l7.9,7.9H5.1l7.9-7.9c0.6-0.6,0.6-1.5,0.1-2.1c-0.6-0.6-1.5-0.6-2.1-0.1
	c0,0,0,0-0.1,0.1L3,28.9V9.6l18,13.6c0.3,0.2,0.6,0.3,0.9,0.3s0.6-0.1,0.9-0.3L41,9.6V28.9L41,28.9z M41,3v2.9L21.9,20.1L3,5.9V3H41
	z"/>
</svg>
