<?xml version="1.0" encoding="utf-8"?>
<!-- Generator: Adobe Illustrator 25.1.0, SVG Export Plug-In . SVG Version: 6.00 Build 0)  -->
<svg version="1.1" id="Layer_1" xmlns="http://www.w3.org/2000/svg" xmlns:xlink="http://www.w3.org/1999/xlink" x="0px" y="0px"
	 viewBox="0 0 24 24" style="enable-background:new 0 0 24 24;" xml:space="preserve">
<style type="text/css">
	.st0{fill-rule:evenodd;clip-rule:evenodd;fill:#667580;}
</style>
<path class="st0" d="M12,21c-1.1,0-2-0.9-2-2s0.9-2,2-2s2,0.9,2,2S13.1,21,12,21z M12,14c-1.1,0-2-0.9-2-2s0.9-2,2-2s2,0.9,2,2
	S13.1,14,12,14z M12,7c-1.1,0-2-0.9-2-2s0.9-2,2-2s2,0.9,2,2S13.1,7,12,7z"/>
</svg>
