<?xml version="1.0" encoding="utf-8"?>
<!-- Generator: Adobe Illustrator 25.1.0, SVG Export Plug-In . SVG Version: 6.00 Build 0)  -->
<svg version="1.1" id="Layer_1" xmlns="http://www.w3.org/2000/svg" xmlns:xlink="http://www.w3.org/1999/xlink" x="0px" y="0px"
	 viewBox="0 0 41 38" style="enable-background:new 0 0 41 38;" xml:space="preserve">
<style type="text/css">
	.st0{fill-rule:evenodd;clip-rule:evenodd;fill:#667580;}
</style>
<path id="User" class="st0" d="M20.5,24C26,24,30,18.6,30,12S26,0,20.5,0S11,5.4,11,12S15,24,20.5,24z M20.5,3c3.9,0,6.5,4,6.5,9
	s-2.6,9-6.5,9S14,17,14,12S16.6,3,20.5,3z M29.6,23c-0.8-0.1-1.6,0.4-1.7,1.2s0.4,1.6,1.2,1.7c0.1,0,0.1,0,0.2,0
	c4.7,0.6,8.3,4.3,8.6,9H3.1c0.4-4.7,3.9-8.4,8.6-9c0.8-0.1,1.4-0.9,1.2-1.7c-0.1-0.8-0.8-1.3-1.5-1.3C11.2,23,0,24.3,0,36.5
	C0,37.3,0.7,38,1.5,38h38c0.8,0,1.5-0.7,1.5-1.5C41,24.3,29.8,23,29.6,23z"/>
</svg>
